<?xml version="1.0" encoding="UTF-8"?>
<svg version="1.1" xmlns="http://www.w3.org/2000/svg" width="404" height="281">
<path d="M0 0 C4.71795811 1.75400852 7.59351589 0.75201906 12.2109375 -0.90625 C18.08880485 -2.80847244 23.93610788 -1.94158933 29.625 0.3125 C33.73758525 3.6025682 35.29074965 6.27985355 36.625 11.3125 C36.78339988 13.83701932 36.84054772 16.36903464 36.8203125 18.8984375 C36.8174826 19.60022125 36.81465271 20.302005 36.81173706 21.02505493 C36.80062512 23.24605028 36.77553834 25.46662845 36.75 27.6875 C36.73995854 29.20181705 36.73083473 30.71614049 36.72265625 32.23046875 C36.70071554 35.92461258 36.66624875 39.61851551 36.625 43.3125 C33.985 43.3125 31.345 43.3125 28.625 43.3125 C28.6156543 42.3337793 28.60630859 41.35505859 28.59667969 40.34667969 C28.55674542 36.70836209 28.49097866 33.07088709 28.41748047 29.43310547 C28.38929046 27.85997356 28.36806602 26.28670053 28.35400391 24.71337891 C28.33254558 22.44881044 28.28588652 20.18593496 28.234375 17.921875 C28.23314636 17.22068542 28.23191772 16.51949585 28.23065186 15.79705811 C28.12946284 12.40820789 27.83645787 10.58944658 25.75512695 7.86352539 C23.01993651 5.87193056 21.41378389 5.86777247 18.0625 6 C16.63744141 6.03673828 16.63744141 6.03673828 15.18359375 6.07421875 C12.5065243 6.22593896 12.5065243 6.22593896 9.625 7.3125 C9.295 19.1925 8.965 31.0725 8.625 43.3125 C6.645 43.3125 4.665 43.3125 2.625 43.3125 C2.61041748 42.47066162 2.59583496 41.62882324 2.58081055 40.76147461 C2.51940846 37.6095731 2.44519269 34.45829539 2.36254883 31.30688477 C2.32949066 29.94827457 2.30140039 28.58953334 2.27856445 27.23071289 C2.27076831 16.82360392 2.27076831 16.82360392 -1.375 7.3125 C-4.07738298 5.96130851 -6.23514446 6.18012872 -9.25 6.1875 C-10.29929687 6.18492187 -11.34859375 6.18234375 -12.4296875 6.1796875 C-14.95156554 6.29340614 -16.96185598 6.65908886 -19.375 7.3125 C-19.36976318 8.36751709 -19.36452637 9.42253418 -19.35913086 10.50952148 C-19.34108099 14.4100663 -19.32956805 18.3106074 -19.32006836 22.21118164 C-19.3150281 23.90194316 -19.30819595 25.59270029 -19.29956055 27.28344727 C-19.28748143 29.70850707 -19.28176877 32.13350944 -19.27734375 34.55859375 C-19.27218246 35.31901474 -19.26702118 36.07943573 -19.26170349 36.86289978 C-19.26150762 38.6798257 -19.31302723 40.49663127 -19.375 42.3125 C-19.87 42.8075 -19.87 42.8075 -20.375 43.3125 C-22.685 43.3125 -24.995 43.3125 -27.375 43.3125 C-27.375 30.1125 -27.375 16.9125 -27.375 3.3125 C-18.06624837 -0.82472294 -9.76554607 -4.01300218 0 0 Z " fill="#E9E9E9" transform="translate(281.375,131.6875)"/>
<path d="M0 0 C1.18490185 1.02087618 2.35448551 2.06011639 3.5 3.125 C4.2425 3.723125 4.985 4.32125 5.75 4.9375 C10.82352951 11.27941188 13.03441453 19.10878212 12.5 27.125 C10.88294165 33.70782809 7.79414829 38.69221911 2.2890625 42.7578125 C-3.25815056 45.47703459 -9.51168097 44.90472904 -15.5 44.125 C-20.71615142 41.93506686 -24.3522154 38.80092422 -27.5 34.125 C-29.67136954 28.58800768 -29.9472891 23.84127135 -28.5 18.125 C-26.37749865 14.17275611 -24.28545931 11.50970271 -20.5 9.125 C-15.69824536 8.23221145 -10.94616983 8.52085726 -6.5625 10.75 C-2.69387016 13.75016192 -0.9073535 16.20467699 -0.22265625 21.11328125 C-0.01058086 25.6177626 -0.56588137 28.68499885 -3.5 32.125 C-6.38361023 33.83957905 -8.14475538 34.13240093 -11.5 34.0625 C-15.41217829 32.83994428 -17.06677174 31.4170147 -19.5 28.125 C-19.98990445 24.57319276 -20.13452763 22.31940494 -18.4375 19.125 C-15.30557344 17.50852178 -12.82814714 18.33834704 -9.5 19.125 C-8.84 19.785 -8.18 20.445 -7.5 21.125 C-7.875 23.25 -7.875 23.25 -8.5 25.125 C-10.81 24.465 -13.12 23.805 -15.5 23.125 C-15.17 24.775 -14.84 26.425 -14.5 28.125 C-11.58347826 28.29181109 -11.58347826 28.29181109 -8.5 28.125 C-5.90664095 25.53164095 -6.22273437 23.63752968 -6.13671875 20.09765625 C-6.61348745 17.50875095 -7.39874471 16.68459837 -9.5 15.125 C-12.49131524 14.20501907 -15.37787788 13.92739733 -18.5 14.125 C-21.57049877 16.27434914 -22.31691629 17.57574888 -23.5 21.125 C-24.08059646 26.93096464 -23.64294195 30.15023951 -19.91015625 34.71484375 C-16.6844499 37.9405501 -13.43920802 38.2468896 -9.0625 38.4375 C-4.03080706 38.31191698 -0.48145544 36.96492291 3.25 33.5 C6.13165485 28.02485578 7.06646155 23.04469868 5.5 17 C3.33996043 10.88147382 0.03858815 6.78060097 -5.375 3.25 C-13.33320931 0.38504465 -19.62344804 0.8568363 -27.1875 4.375 C-31.58020181 7.69920677 -35.09035157 11.74270599 -36.5 17.125 C-37.33083197 24.1277266 -35.64718221 29.39014943 -31.5 35.125 C-28.71101621 37.56470919 -25.74563538 39.35565873 -22.5 41.125 C-21.44232422 41.74375 -21.44232422 41.74375 -20.36328125 42.375 C-18.75524338 43.31438115 -17.12959033 44.2235245 -15.5 45.125 C-15.5 45.785 -15.5 46.445 -15.5 47.125 C-23.63893248 46.74819757 -30.09602025 45.00597974 -35.8125 38.9375 C-41.49576099 31.62823791 -42.58802736 23.17540943 -41.5 14.125 C-39.72773594 7.92207581 -35.57289013 3.00426892 -30.5 -0.875 C-21.02488578 -5.87830016 -8.87680283 -6.56617437 0 0 Z " fill="#FEFEFE" transform="translate(115.5,132.875)"/>
<path d="M0 0 C4.539549 3.891042 7.26711287 7.36582242 8.625 13.25 C8.625 16.22 8.625 19.19 8.625 22.25 C-1.605 22.25 -11.835 22.25 -22.375 22.25 C-20.41480592 31.59047655 -20.41480592 31.59047655 -16.8125 34.875 C-9.02537384 37.98985046 -1.92328591 36.31307254 5.625 33.25 C5.625 35.89 5.625 38.53 5.625 41.25 C-1.69575439 44.10520842 -11.1921058 44.77438065 -18.83203125 42.52734375 C-24.23871665 39.61786381 -27.55285112 34.98783052 -29.375 29.25 C-29.70929448 26.30872121 -29.74511461 23.39560313 -29.75 20.4375 C-29.78673828 19.28411133 -29.78673828 19.28411133 -29.82421875 18.10742188 C-29.85921342 11.19597386 -27.9168782 5.86057761 -23.0625 0.875 C-15.67889278 -3.58950669 -7.64209925 -3.96256998 0 0 Z M-20.375 7.25 C-21.035 9.89 -21.695 12.53 -22.375 15.25 C-14.785 15.25 -7.195 15.25 0.625 15.25 C0.26712482 8.8167298 0.26712482 8.8167298 -1.75 6.375 C-6.9906066 2.74688774 -15.7750204 2.78941372 -20.375 7.25 Z " fill="#F6F6F6" transform="translate(358.375,132.75)"/>
<path d="M0 0 C5.18189257 7.37423173 3.85691635 17.22288064 3.75 25.8125 C3.73995069 27.22134781 3.73082829 28.63020255 3.72265625 30.0390625 C3.69919969 33.4637205 3.66637384 36.88801939 3.625 40.3125 C0.985 40.3125 -1.655 40.3125 -4.375 40.3125 C-4.3843457 39.3337793 -4.39369141 38.35505859 -4.40332031 37.34667969 C-4.44325458 33.70836209 -4.50902134 30.07088709 -4.58251953 26.43310547 C-4.61070954 24.85997356 -4.63193398 23.28670053 -4.64599609 21.71337891 C-4.66745442 19.44881044 -4.71411348 17.18593496 -4.765625 14.921875 C-4.76685364 14.22068542 -4.76808228 13.51949585 -4.76934814 12.79705811 C-4.87029867 9.41619495 -5.16546749 7.58861936 -7.23339844 4.86352539 C-10.08234007 2.80021871 -11.89066852 2.87369298 -15.375 3 C-16.40625 3.02449219 -17.4375 3.04898438 -18.5 3.07421875 C-21.59338235 3.25264607 -21.59338235 3.25264607 -25.375 4.3125 C-25.375 16.1925 -25.375 28.0725 -25.375 40.3125 C-28.015 40.3125 -30.655 40.3125 -33.375 40.3125 C-33.375 27.1125 -33.375 13.9125 -33.375 0.3125 C-21.85445136 -4.80774384 -10.91829213 -7.75773388 0 0 Z " fill="#E8E8E8" transform="translate(217.375,134.6875)"/>
<path d="M0 0 C3.55406207 4.6131522 3.64217594 9.98024593 3.55859375 15.57421875 C3.55576385 16.29819855 3.55293396 17.02217834 3.55001831 17.76809692 C3.53890212 20.06041615 3.51381437 22.35233188 3.48828125 24.64453125 C3.47824035 26.20702557 3.46911644 27.76952607 3.4609375 29.33203125 C3.43899098 33.14468463 3.40452138 36.95703973 3.36328125 40.76953125 C1.05328125 40.76953125 -1.25671875 40.76953125 -3.63671875 40.76953125 C-3.65130127 39.8566333 -3.66588379 38.94373535 -3.6809082 38.00317383 C-3.7421267 34.60154514 -3.81630748 31.20070444 -3.89916992 27.79956055 C-3.93233134 26.33026703 -3.96039053 24.86084881 -3.9831543 23.39135742 C-4.01686394 21.27338757 -4.06918308 19.1565513 -4.125 17.0390625 C-4.15118408 15.76651611 -4.17736816 14.49396973 -4.2043457 13.18286133 C-4.66087673 9.57881826 -5.4621019 7.64735753 -7.63671875 4.76953125 C-13.01155725 2.082112 -19.62746662 3.76953125 -25.63671875 3.76953125 C-25.63671875 15.97953125 -25.63671875 28.18953125 -25.63671875 40.76953125 C-27.94671875 40.76953125 -30.25671875 40.76953125 -32.63671875 40.76953125 C-32.63671875 27.23953125 -32.63671875 13.70953125 -32.63671875 -0.23046875 C-22.22858804 -4.13351777 -9.81892738 -7.38177118 0 0 Z " fill="#F8F8F8" transform="translate(65.63671875,134.23046875)"/>
<path d="M0 0 C0 1.98 0 3.96 0 6 C-8.415 6.495 -8.415 6.495 -17 7 C-17 19.21 -17 31.42 -17 44 C-19.31 44 -21.62 44 -24 44 C-24 30.47 -24 16.94 -24 3 C-4 -2 -4 -2 0 0 Z " fill="#F0F0F0" transform="translate(155,131)"/>
<path d="M0 0 C2.31 0 4.62 0 7 0 C7 14.52 7 29.04 7 44 C4.69 44 2.38 44 0 44 C0 29.48 0 14.96 0 0 Z " fill="#FBFBFB" transform="translate(234,131)"/>
<path d="M0 0 C2.31 0 4.62 0 7 0 C7 14.52 7 29.04 7 44 C4.69 44 2.38 44 0 44 C0 29.48 0 14.96 0 0 Z " fill="#FEFEFE" transform="translate(164,131)"/>
<path d="M0 0 C2.31 0 4.62 0 7 0 C7 2.31 7 4.62 7 7 C4.69 7 2.38 7 0 7 C0 4.69 0 2.38 0 0 Z " fill="#FAFAFA" transform="translate(234,117)"/>
<path d="M0 0 C2.31 0 4.62 0 7 0 C7 2.31 7 4.62 7 7 C4.69 7 2.38 7 0 7 C0 4.69 0 2.38 0 0 Z " fill="#FBFBFB" transform="translate(164,117)"/>
</svg>
